<svg width="506" height="346" viewBox="0 0 506 346" fill="none" xmlns="http://www.w3.org/2000/svg">
<path d="M53.3 127.1L106.3 97.8L67.3 136.8L16.5 163.9L53.3 127.1Z" fill="#562D04"/>
<path d="M106.3 97.8L98.0001 139L58.1001 173.2L67.3001 136.8L106.3 97.8Z" fill="#6B3805"/>
<path d="M106.4 97.7L98 139L155.2 129.7L106.4 97.7Z" fill="#7C4803"/>
<path d="M106.4 97.7L155.2 129.7L205.3 118.3L209.7 62.9L106.4 97.7Z" fill="#915103"/>
<path d="M256.1 111.7L205.3 118.3L209.7 62.9L256.1 111.7Z" fill="#774004"/>
<path d="M240.8 48.5L273 55.4L256.1 111.7L209.7 62.9L240.8 48.5Z" fill="#6B3805"/>
<path d="M294.4 115L273 55.4L256.1 111.7L294.4 115Z" fill="#5B2E06"/>
<path d="M356.8 80.1L294.4 115L273 55.4L356.8 80.1Z" fill="#774004"/>
<path d="M321 39L356.8 80.1L273 55.4L321 39Z" fill="#562D04"/>
<path d="M324.2 24.4L321 39L273 55.4L303.6 29.8L324.2 24.4Z" fill="#6B3607"/>
<path d="M322.3 40.6H346.7L337.9 27.3L324.2 24.4L321 39L322.3 40.6Z" fill="#562D04"/>
<path d="M380.1 82.3L356.8 80.9L321 39H345.7L369.5 62.1L380.1 82.3Z" fill="#6B3607"/>
<path d="M98.0001 139L58.1001 173.2L109.2 236.8L142.6 229.5L98.0001 139Z" fill="#774004"/>
<path d="M155.2 129.7L171.2 231.3L142.6 229.5L98 139L155.2 129.7Z" fill="#915103"/>
<path d="M58.0999 173.2L54.3999 225.5L75.4999 245.8L82.1999 203.2L58.0999 173.2Z" fill="#915103"/>
<path d="M109.2 236.8L75.5 245.8L82.2 203.2L109.2 236.8Z" fill="#6B3805"/>
<path d="M54.4 225.5L37.8 269L54.4 296.6L75.5 245.8L54.4 225.5Z" fill="#6B3805"/>
<path d="M109.2 236.8L75.4999 245.8L54.3999 296.6L85.2999 280.7L109.2 236.8Z" fill="#7C4803"/>
<path d="M97.9999 298.4L85.2999 280.7L54.3999 296.6V299.5L97.9999 298.4Z" fill="#4F3102"/>
<path d="M109.2 236.8L120.8 299.5H142.6V229.5L109.2 236.8Z" fill="#6B3805"/>
<path d="M168.2 276.5L140.4 299.5H189.3L168.2 276.5Z" fill="#4F3102"/>
<path d="M142.6 229.5V297.7L168.2 276.5L171.2 231.3L142.6 229.5Z" fill="#7C4803"/>
<path d="M155.2 129.7L171.2 231.3H201.5L222.6 220.8L205.3 118.3L155.2 129.7Z" fill="#7C4803"/>
<path d="M256.1 111.7L250.4 211.8L222.6 220.8L205.3 118.3L256.1 111.7Z" fill="#5B2E06"/>
<path d="M248.6 299.5H226.6L222.6 220.8L250.4 211.8L248.6 299.5Z" fill="#6B3805"/>
<path d="M294.4 115L283.2 206L250.4 211.8L256.1 111.7L294.4 115Z" fill="#774004"/>
<path d="M275.2 276.5L248.6 299.5L250.4 211.8L283.2 206L275.2 276.5Z" fill="#7C4803"/>
<path d="M275.2 276.5L294.4 299.5H248.6L275.2 276.5Z" fill="#4F3102"/>
<path d="M296.1 185.6L284.2 198L281.8 217.9L294.4 231.3L289 248.4L303.6 265.8L314.9 218.2L296.1 185.6Z" fill="#6B3805"/>
<path d="M327.3 297.7L303.6 265.8L314.9 218.2L345.7 220.8L327.3 297.7Z" fill="#4F3102"/>
<path d="M314.9 156.3L296.1 185.6L314.9 218.2L345.7 220.8L314.9 156.3Z" fill="#7C4803"/>
<path d="M294.4 115L314.9 156.3L296.1 188.5L283.2 206L294.4 115Z" fill="#915103"/>
<path d="M342.9 138.2L314.9 156.3L294.4 115L342.9 138.2Z" fill="#774004"/>
<path d="M356.8 80.9L360.9 118.3L402.9 111.7L380.1 82.3L356.8 80.9Z" fill="#774004"/>
<path d="M342.7 139.4L360.9 118.8L356.8 80.1L293.7 115.4L342.7 139.4Z" fill="#6B3805"/>
<path d="M393.5 160.5L360.9 118.3L342.9 138.2L393.5 160.5Z" fill="#562D04"/>
<path d="M416.1 150.5L423.5 174.8L393.5 160.5L360.9 118.3L416.1 150.5Z" fill="#6B3805"/>
<path d="M402.9 111.7L416.1 150.5L360.9 118.3L402.9 111.7Z" fill="#562D04"/>
<path d="M393.5 160.5L407.3 196.3L418.6 225.7L423.5 206V174.8L393.5 160.5Z" fill="#7C4803"/>
<path d="M402.9 238.7L384.6 252.7L397.9 251.4L402.9 265.8L416.1 241.3L419 224.3L407.3 196.3L402.9 238.7Z" fill="#774004"/>
<path d="M416.1 150.5L423.5 174.8L462.6 160.5L470 143.7L441.2 156.3L416.1 150.5Z" fill="#774004"/>
<path d="M471.4 84L483 103.4V119.4L470 143.7L462.6 160.5L481.7 142.5L490.2 122.2V107.9L485 90.6L471.4 84Z" fill="#562D04"/>
</svg>
