<svg width="431" height="448" viewBox="0 0 431 448" fill="none" xmlns="http://www.w3.org/2000/svg">
<g clip-path="url(#clip0_308_710)">
<path d="M119.05 0L54.583 18.845L99.3377 60.9823L119.05 0Z" fill="#646464"/>
<path d="M23.2102 79.8273L54.5829 18.845L99.3376 60.9823L68.0204 88.7773L23.2102 79.8273Z" fill="#4C4C4E"/>
<path d="M61.3017 187.561L87.5104 166.103L23.2102 79.8273L61.3017 187.561Z" fill="#646464"/>
<path d="M68.0204 88.7773L113.664 148.87L87.1772 166.381L23.2102 79.8273L68.0204 88.7773Z" fill="#555556"/>
<path d="M99.3377 60.9823L113.664 148.87L68.0205 88.7773L99.3377 60.9823Z" fill="#2E2E31"/>
<path d="M61.3018 187.561L90.8421 163.323L82.3465 224.195H63.5784L61.3018 187.561Z" fill="#0C0C14"/>
<path d="M99.3377 255.992L82.3464 224.195L90.8421 163.323L105.89 216.912L99.3377 255.992Z" fill="#181818"/>
<path d="M113.664 148.87L90.842 163.323L105.89 216.912L113.664 148.87Z" fill="#646464"/>
<path d="M44.0884 224.195L28.7074 197.4V171.217L55.0272 202.792V224.195H44.0884Z" fill="#0C0C14"/>
<path d="M34.8709 231.255L28.7074 227.419V197.4L44.0884 224.195L34.8709 231.255Z" fill="#181818"/>
<path d="M55.0272 224.195H82.3464L92.3412 242.928L68.0205 255.992L28.7074 245.152L34.8709 231.254L44.0884 224.195H55.0272Z" fill="#646464"/>
<path d="M65.4663 255.714L61.3018 292.292L102.281 255.992L92.9521 242.65L65.4663 255.714Z" fill="#0C0C14"/>
<path d="M28.7074 245.152L0 262.218L18.2684 295.628L61.3017 292.292L66.0215 255.436L28.7074 245.152Z" fill="#76757A"/>
<path d="M73.4621 299.686L18.2683 295.628L61.3017 292.292L102.281 255.992L105.89 265.164L73.4621 299.686Z" fill="#2B2B2B"/>
<path d="M99.3376 252.156L105.89 216.912L113.664 148.87L120.049 233.812L102.281 255.992L120.049 233.812L105.89 265.164L99.3376 252.156Z" fill="#0C0C14"/>
<path d="M73.4622 299.686L105.89 380.236L120.049 343.546L73.4622 299.686Z" fill="#2E2E31"/>
<path d="M172.467 399.414L189.847 370.23L120.049 343.546L105.89 380.236L172.467 399.414Z" fill="#181818"/>
<path d="M147.868 273.781L120.049 343.546L73.4622 299.686L105.89 265.164L147.868 269.056V273.781Z" fill="#555556"/>
<path d="M189.236 189.062L161.361 187.394L120.049 233.812L105.89 265.164L147.868 269.056L189.236 189.062Z" fill="#2B2B2B"/>
<path d="M189.847 370.23V329.816L147.868 269.056L120.049 343.546L189.847 370.23Z" fill="#0C0C14"/>
<path d="M187.514 192.453L189.847 329.816L147.868 269.056L187.514 192.453Z" fill="#181818"/>
<path d="M158.307 62.7611L161.972 187.561L187.514 189.062L158.307 62.7611Z" fill="#181818"/>
<path d="M158.307 62.7611L187.514 189.062L249.816 177.277L158.307 62.7611Z" fill="#2E2E31"/>
<path d="M189.847 329.816L245.54 325.98L310.784 327.926L249.816 177.277L187.514 189.062L189.847 329.816Z" fill="#2B2B2B"/>
<path d="M221.275 408.531L241.264 326.313L189.847 329.816L187.514 374.176L221.275 408.531Z" fill="#39393D"/>
<path d="M296.181 171.217L249.816 177.277L310.784 327.926L296.181 171.217Z" fill="#646464"/>
<path d="M158.307 62.7611L296.181 171.217L249.816 177.277L158.307 62.7611Z" fill="#555556"/>
<path d="M296.181 95.6148V171.217L158.307 62.7611L296.181 95.6148Z" fill="#0C0C14"/>
<path d="M310.784 43.1935L296.181 95.6148L158.307 62.7611L310.784 43.1935Z" fill="#555556"/>
<path d="M286.741 0L310.784 43.1934L158.307 62.7611L286.741 0Z" fill="#2E2E31"/>
<path d="M431 0L310.784 43.1935L286.741 0H431Z" fill="#181818"/>
<path d="M382.025 62.7611L431 0L310.784 43.1934L382.025 62.7611Z" fill="#2E2E31"/>
<path d="M387.189 177.277L382.025 62.7611L310.784 43.1935L387.189 177.277Z" fill="#2B2B2B"/>
<path d="M296.181 95.6148L310.784 43.1935L387.189 177.277L296.181 95.6148Z" fill="#646464"/>
<path d="M296.181 171.217V95.6148L387.189 177.277L296.181 171.217Z" fill="#181818"/>
<path d="M334.827 216.912L387.189 177.277L296.181 171.217L334.827 216.912Z" fill="#2E2E31"/>
<path d="M310.784 327.926L334.827 216.912L296.181 171.217L310.784 327.926Z" fill="#555556"/>
<path d="M257.534 436.382L241.264 428.877L187.514 374.176L182.017 383.349L234.546 441.107L257.534 436.382Z" fill="#76757A"/>
<path d="M172.467 399.414L212.446 446.388L215.889 420.539L182.017 383.349L172.467 399.414Z" fill="#2E2E31"/>
<path d="M162.25 396.468V436.826L152.81 448H165.914L178.797 439.272L178.13 406.141L172.467 399.414L162.25 396.468Z" fill="#76757A"/>
</g>
<defs>
<clipPath id="clip0_308_710">
<rect width="431" height="448" fill="white"/>
</clipPath>
</defs>
</svg>
